<?xml version="1.0" standalone="no"?>
<!DOCTYPE svg PUBLIC "-//W3C//DTD SVG 20010904//EN"
 "http://www.w3.org/TR/2001/REC-SVG-20010904/DTD/svg10.dtd">
<svg version="1.0" xmlns="http://www.w3.org/2000/svg"
 width="256.000000pt" height="256.000000pt" viewBox="0 0 256.000000 256.000000"
 preserveAspectRatio="xMidYMid meet">
<metadata>
Created by potrace 1.11, written by Peter Selinger 2001-2013
</metadata>
<g transform="translate(0.000000,256.000000) scale(0.100000,-0.100000)"
fill="#000000" stroke="none">
<path d="M1125 2549 c-503 -87 -865 -483 -892 -975 -9 -164 26 -297 125 -484
71 -132 249 -387 355 -506 14 -16 35 -40 47 -54 95 -110 338 -361 458 -473
l62 -59 67 64 c184 174 395 396 504 528 30 36 56 67 60 70 12 10 146 196 199
275 88 132 175 318 207 440 3 11 7 72 9 135 2 104 -3 148 -31 277 -3 12 -18
56 -34 98 -130 338 -423 582 -786 657 -66 13 -286 17 -350 7z m323 -304 c209
-51 406 -222 480 -415 44 -117 47 -133 46 -270 -1 -120 -4 -144 -28 -210 -86
-242 -279 -415 -519 -464 -348 -72 -668 109 -809 459 -17 43 -35 184 -31 255
15 332 280 623 597 656 33 4 62 7 64 9 8 7 142 -6 200 -20z"/>
<path d="M859 1935 c-1 -36 -1 -792 0 -817 1 -16 12 -18 96 -18 92 0 95 1 96
23 0 12 2 205 2 429 2 356 0 408 -13 409 -8 0 -52 1 -98 2 l-82 2 -1 -30z"/>
<path d="M1338 1965 c-2 -2 -28 -5 -58 -9 -30 -3 -56 -6 -56 -6 -1 0 -1 -191
-1 -425 l0 -425 96 0 96 0 0 143 c-1 78 1 147 3 153 2 7 33 11 80 12 181 1
307 85 337 222 20 89 -6 189 -63 248 -63 64 -152 89 -315 89 -64 0 -118 -1
-119 -2z m235 -159 c46 -19 69 -49 74 -98 8 -86 -57 -150 -155 -151 -79 -2
-78 -4 -76 129 1 66 3 122 3 127 2 12 120 8 154 -7z"/>
</g>
</svg>
